<svg width="81" height="21" viewBox="0 0 81 21" fill="none" xmlns="http://www.w3.org/2000/svg">
<g clip-path="url(#clip0_230_592)">
<g filter="url(#filter0_d_230_592)">
<path d="M71.9024 2.58896H6.72166C4.32812 2.58896 2.38777 4.70326 2.38777 7.31139V11.1305C2.38777 13.7386 4.32812 15.8529 6.72166 15.8529H71.9024C74.2959 15.8529 76.2363 13.7386 76.2363 11.1305V7.31139C76.2363 4.70326 74.2959 2.58896 71.9024 2.58896Z" fill="url(#paint0_linear_230_592)"/>
</g>
<g filter="url(#filter1_d_230_592)">
<path d="M6.72165 3.10367C4.58895 3.10367 2.86012 4.98749 2.86012 7.31139V11.1331C2.86012 13.457 4.58895 15.3408 6.72165 15.3408H20.2901V3.10367H6.72165Z" fill="url(#paint1_linear_230_592)"/>
</g>
<g style="mix-blend-mode:multiply" opacity="0.4">
<path d="M10.5808 11.7147C10.4793 11.7147 10.3801 11.6684 10.3092 11.5757C10.184 11.4136 10.2029 11.1691 10.3541 11.0327L12.3285 9.23383L10.3541 7.43493C10.2029 7.29853 10.184 7.05405 10.3092 6.89191C10.4344 6.72721 10.6588 6.70662 10.8076 6.84302L13.1079 8.93787C13.1882 9.00993 13.2355 9.12059 13.2355 9.23383C13.2355 9.34706 13.1882 9.45772 13.1079 9.52978L10.8076 11.6246C10.7414 11.6864 10.6611 11.7147 10.5808 11.7147Z" fill="#C0C4CA"/>
</g>
<path d="M10.4273 11.4856C10.3257 11.4856 10.2266 11.4393 10.1557 11.3467C10.0305 11.1845 10.0494 10.9401 10.2006 10.8037L12.175 9.00476L10.2006 7.20586C10.0494 7.06947 10.0305 6.82498 10.1557 6.66285C10.2809 6.49814 10.5052 6.47756 10.654 6.61395L12.9544 8.70881C13.0347 8.78344 13.082 8.89153 13.082 9.00476C13.082 9.118 13.0347 9.22866 12.9544 9.30072L10.654 11.3956C10.5879 11.4573 10.5076 11.4856 10.4273 11.4856Z" fill="#0A152B"/>
<g opacity="0.8">
<path d="M28.1478 10.8834L28.3486 10.4022C28.632 10.693 29.1185 10.9015 29.6098 10.9015C30.2687 10.9015 30.5545 10.6106 30.5545 10.2349C30.5545 9.18233 28.2399 9.8463 28.2399 8.24557C28.2399 7.57902 28.6981 7.01285 29.7019 7.01285C30.1483 7.01285 30.6136 7.14924 30.93 7.39373L30.7505 7.88785C30.4175 7.64851 30.042 7.53785 29.7019 7.53785C29.0524 7.53785 28.7737 7.84667 28.7737 8.22241C28.7737 9.27498 31.0859 8.61616 31.0859 10.2015C31.0859 10.8603 30.6159 11.4265 29.6074 11.4265C29.0241 11.4265 28.4501 11.2051 28.1455 10.8834H28.1478Z" fill="#0A152B"/>
<path d="M32.2881 9.5169V7.06433H32.8336V9.49117C32.8336 10.4459 33.221 10.8783 33.9082 10.8783C34.5955 10.8783 34.9876 10.4459 34.9876 9.49117V7.06433H35.5166V9.5169C35.5166 10.7676 34.912 11.4265 33.9012 11.4265C32.8903 11.4265 32.2857 10.7676 32.2857 9.5169H32.2881Z" fill="#0A152B"/>
<path d="M36.7235 10.8834L36.9243 10.4022C37.2077 10.693 37.6942 10.9015 38.1855 10.9015C38.8468 10.9015 39.1302 10.6106 39.1302 10.2349C39.1302 9.18233 36.8156 9.8463 36.8156 8.24557C36.8156 7.57902 37.2738 7.01285 38.2776 7.01285C38.7239 7.01285 39.1892 7.14924 39.5057 7.39373L39.3262 7.88785C38.9932 7.64851 38.6177 7.53785 38.2776 7.53785C37.6281 7.53785 37.3494 7.84667 37.3494 8.22241C37.3494 9.27498 39.6616 8.61616 39.6616 10.2015C39.6616 10.8603 39.1916 11.4265 38.1831 11.4265C37.5997 11.4265 37.0258 11.2051 36.7211 10.8834H36.7235Z" fill="#0A152B"/>
<path d="M40.5874 9.22093C40.5874 7.94446 41.4495 7.01541 42.6115 7.01541C43.2019 7.01541 43.7144 7.24446 44.064 7.6871L43.7097 8.07571C43.4145 7.72571 43.0555 7.56357 42.6351 7.56357C41.773 7.56357 41.1353 8.26615 41.1353 9.22093C41.1353 10.1757 41.773 10.8783 42.6351 10.8783C43.0555 10.8783 43.4145 10.711 43.7097 10.361L44.064 10.7496C43.7144 11.1922 43.2019 11.4264 42.6067 11.4264C41.4495 11.4264 40.5874 10.4974 40.5874 9.22093Z" fill="#0A152B"/>
<path d="M47.831 11.3776L47.0067 10.0522C46.9312 10.0573 46.8485 10.0651 46.7658 10.0651H45.8211V11.3776H45.2756V7.06433H46.7658C47.7578 7.06433 48.36 7.63051 48.36 8.56727C48.36 9.23382 48.0554 9.71249 47.5193 9.92867L48.4238 11.3776H47.8286H47.831ZM47.8145 8.56727C47.8145 7.9522 47.4484 7.59963 46.7517 7.59963H45.8235V9.54007H46.7517C47.4508 9.54007 47.8145 9.18235 47.8145 8.56727Z" fill="#0A152B"/>
<path d="M49.6803 7.06433H50.2259V11.3776H49.6803V7.06433Z" fill="#0A152B"/>
<path d="M55.0935 10.2117C55.0935 10.9503 54.5975 11.375 53.6316 11.375H51.8083V7.06174H53.5206C54.3992 7.06174 54.8904 7.48122 54.8904 8.17608C54.8904 8.64446 54.6778 8.9713 54.3779 9.136C54.8101 9.2724 55.0935 9.63527 55.0935 10.2092V10.2117ZM52.3538 7.56358V8.94299H53.4733C54.0307 8.94299 54.3472 8.7088 54.3472 8.25328C54.3472 7.79777 54.0307 7.56358 53.4733 7.56358H52.3538ZM54.5432 10.1628C54.5432 9.66358 54.2149 9.44225 53.6103 9.44225H52.3562V10.8783H53.6103C54.2149 10.8783 54.5432 10.6621 54.5432 10.1628Z" fill="#0A152B"/>
<path d="M59.1487 10.8397V11.375H56.376V7.06174H59.0708V7.59703H56.9215V8.9224H58.837V9.44483H56.9215V10.8371H59.1463L59.1487 10.8397Z" fill="#0A152B"/>
<path d="M61.2271 7.59963H59.9187V7.06433H63.0787V7.59963H61.7703V11.3776H61.2295V7.59963H61.2271Z" fill="#0A152B"/>
<path d="M66.8789 10.8397V11.375H64.1061V7.06174H66.8009V7.59703H64.6517V8.9224H66.5671V9.44483H64.6517V10.8371H66.8765L66.8789 10.8397Z" fill="#0A152B"/>
</g>
</g>
<defs>
<filter id="filter0_d_230_592" x="-2.61223" y="-2.41104" width="93.8485" height="33.264" filterUnits="userSpaceOnUse" color-interpolation-filters="sRGB">
<feFlood flood-opacity="0" result="BackgroundImageFix"/>
<feColorMatrix in="SourceAlpha" type="matrix" values="0 0 0 0 0 0 0 0 0 0 0 0 0 0 0 0 0 0 127 0" result="hardAlpha"/>
<feOffset dx="5" dy="5"/>
<feGaussianBlur stdDeviation="5"/>
<feColorMatrix type="matrix" values="0 0 0 0 0.231373 0 0 0 0 0.247059 0 0 0 0 0.356863 0 0 0 0.25 0"/>
<feBlend mode="normal" in2="BackgroundImageFix" result="effect1_dropShadow_230_592"/>
<feBlend mode="normal" in="SourceGraphic" in2="effect1_dropShadow_230_592" result="shape"/>
</filter>
<filter id="filter1_d_230_592" x="-2.13988" y="-1.89633" width="37.43" height="32.2371" filterUnits="userSpaceOnUse" color-interpolation-filters="sRGB">
<feFlood flood-opacity="0" result="BackgroundImageFix"/>
<feColorMatrix in="SourceAlpha" type="matrix" values="0 0 0 0 0 0 0 0 0 0 0 0 0 0 0 0 0 0 127 0" result="hardAlpha"/>
<feOffset dx="5" dy="5"/>
<feGaussianBlur stdDeviation="5"/>
<feColorMatrix type="matrix" values="0 0 0 0 0.231373 0 0 0 0 0.247059 0 0 0 0 0.356863 0 0 0 0.25 0"/>
<feBlend mode="normal" in2="BackgroundImageFix" result="effect1_dropShadow_230_592"/>
<feBlend mode="normal" in="SourceGraphic" in2="effect1_dropShadow_230_592" result="shape"/>
</filter>
<linearGradient id="paint0_linear_230_592" x1="39.312" y1="15.8529" x2="39.312" y2="2.58896" gradientUnits="userSpaceOnUse">
<stop stop-color="white"/>
<stop offset="1" stop-color="#C7C9D6"/>
</linearGradient>
<linearGradient id="paint1_linear_230_592" x1="11.5751" y1="15.3382" x2="11.5751" y2="3.10367" gradientUnits="userSpaceOnUse">
<stop stop-color="#C7C9D6"/>
<stop offset="1" stop-color="white"/>
</linearGradient>
<clipPath id="clip0_230_592">
<rect width="81" height="21" fill="white"/>
</clipPath>
</defs>
</svg>
