<svg width="16" height="16" viewBox="0 0 16 16" fill="none" xmlns="http://www.w3.org/2000/svg">
<g clip-path="url(#clip0_11_7)">
<path d="M7.99911 15.9982C12.4169 15.9982 15.9982 12.4169 15.9982 7.99911C15.9982 3.58132 12.4169 0 7.99911 0C3.58132 0 0 3.58132 0 7.99911C0 12.4169 3.58132 15.9982 7.99911 15.9982Z" fill="#F5F5F5"/>
<path d="M6.8513 6.09616V6.71804C6.4995 6.71804 6.16546 6.71448 5.82965 6.71804C5.38189 6.72514 5.19178 6.90104 5.19 7.34702C5.18289 8.60854 5.18289 9.87006 5.19 11.1316C5.19178 11.5811 5.37834 11.7623 5.82431 11.7623C7.28128 11.7659 8.74003 11.7659 10.197 11.7623C10.6447 11.7623 10.8366 11.5811 10.8402 11.1369C10.8473 9.87539 10.8473 8.61387 10.8402 7.35235C10.8384 6.90815 10.6447 6.72514 10.2023 6.71804C9.86651 6.71271 9.53248 6.71804 9.17889 6.71804V6.13347C9.6764 6.13347 10.1632 6.09616 10.6412 6.14413C11.0996 6.19033 11.423 6.50304 11.4319 6.95968C11.4621 8.48061 11.4638 10.0033 11.4319 11.5243C11.4212 12.0022 11.0694 12.2901 10.595 12.3682C10.4671 12.3896 10.3338 12.3913 10.2041 12.3913C8.74714 12.3913 7.28839 12.3913 5.83142 12.3913C5.78523 12.3913 5.73725 12.3913 5.69105 12.3913C4.97501 12.3647 4.57701 12.0164 4.56457 11.3057C4.53969 9.93225 4.53969 8.55879 4.56457 7.18533C4.57878 6.47461 4.98389 6.1157 5.69283 6.09971C6.07307 6.09083 6.45508 6.09971 6.85308 6.09971L6.8513 6.09616Z" fill="black"/>
<path d="M8.32782 4.48994C8.32782 5.95402 8.32782 7.36301 8.32782 8.77201C8.32782 9.18778 8.23542 9.35124 8.00267 9.34414C7.78412 9.33703 7.70239 9.18423 7.70239 8.77734C7.70239 7.36657 7.70239 5.9558 7.70239 4.48461C7.49273 4.70671 7.30616 4.90394 7.1196 5.10294C7.0432 5.18467 6.96857 5.26996 6.88862 5.34813C6.75714 5.47606 6.60433 5.50982 6.46752 5.37479C6.32893 5.23797 6.36091 5.08695 6.49595 4.95724C6.80511 4.65696 7.11605 4.36202 7.42343 4.06174C8.05064 3.44697 7.992 3.46296 8.60144 4.05818C8.89639 4.34602 9.19311 4.63031 9.48984 4.91282C9.63198 5.04786 9.73326 5.20421 9.56624 5.36946C9.39212 5.5418 9.23043 5.44941 9.08651 5.29305C8.84664 5.03364 8.60144 4.77956 8.32782 4.48817V4.48994Z" fill="black"/>
</g>
<defs>
<clipPath id="clip0_11_7">
<rect width="16" height="16" fill="white"/>
</clipPath>
</defs>
</svg>
