<svg width="19" height="14" viewBox="0 0 19 14" fill="none" xmlns="http://www.w3.org/2000/svg">
<g clip-path="url(#clip0_277_470)">
<path d="M19 4.39535C19 1.96977 17.1279 0 14.8225 0H4.17752C1.87215 0 0 1.96977 0 4.39535V9.62093C0 12.0465 1.87215 14.0163 4.17752 14.0163H14.8379C17.1433 14.0163 19.0155 12.0465 19.0155 9.62093V4.39535H19ZM12.7337 7.3907L7.95277 9.8814C7.7671 9.99535 7.13274 9.84884 7.13274 9.62093V4.5093C7.13274 4.2814 7.78257 4.13488 7.96824 4.24884L12.548 6.86977C12.7337 6.98372 12.9349 7.27674 12.7492 7.3907H12.7337Z" fill="white"/>
</g>
<defs>
<clipPath id="clip0_277_470">
<rect width="19" height="14" fill="white"/>
</clipPath>
</defs>
</svg>
