<svg width="18" height="18" viewBox="0 0 18 18" fill="none" xmlns="http://www.w3.org/2000/svg">
<path d="M8.99599 17.992C13.9643 17.992 17.992 13.9643 17.992 8.99599C17.992 4.02764 13.9643 0 8.99599 0C4.02764 0 0 4.02764 0 8.99599C0 13.9643 4.02764 17.992 8.99599 17.992Z" fill="url(#paint0_linear_277_492)"/>
<path d="M13.8147 7.68909C13.8147 6.49443 12.8445 5.52428 11.6499 5.52428H6.12561C4.93096 5.52428 3.9608 6.49443 3.9608 7.68909V10.2628C3.9608 11.4575 4.93096 12.4276 6.12561 12.4276H11.6499C12.8445 12.4276 13.8147 11.4575 13.8147 10.2628V7.68909ZM10.5675 9.17238L8.08998 10.3991C7.99376 10.4552 7.66503 10.3831 7.66503 10.2708V7.75323C7.66503 7.64098 8.00178 7.56882 8.09799 7.62495L10.4713 8.91581C10.5675 8.97194 10.6717 9.11626 10.5755 9.17238H10.5675Z" fill="white"/>
<defs>
<linearGradient id="paint0_linear_277_492" x1="15.3621" y1="2.63786" x2="2.63786" y2="15.3621" gradientUnits="userSpaceOnUse">
<stop stop-color="#FF0000"/>
<stop offset="1" stop-color="#850000"/>
</linearGradient>
</defs>
</svg>
