<svg width="18" height="18" viewBox="0 0 18 18" fill="none" xmlns="http://www.w3.org/2000/svg">
<path d="M8.99599 17.992C13.9643 17.992 17.992 13.9643 17.992 8.99599C17.992 4.02764 13.9643 0 8.99599 0C4.02764 0 0 4.02764 0 8.99599C0 13.9643 4.02764 17.992 8.99599 17.992Z" fill="url(#paint0_linear_277_491)"/>
<path d="M11.7942 6.83118C12.1352 6.83118 12.4116 6.55477 12.4116 6.21381C12.4116 5.87284 12.1352 5.59644 11.7942 5.59644C11.4532 5.59644 11.1768 5.87284 11.1768 6.21381C11.1768 6.55477 11.4532 6.83118 11.7942 6.83118Z" fill="white"/>
<path d="M9.04408 6.3902C7.60889 6.3902 6.4463 7.55278 6.4463 8.98797C6.4463 10.4232 7.60889 11.5857 9.04408 11.5857C10.4793 11.5857 11.6418 10.4232 11.6418 8.98797C11.6418 7.55278 10.4793 6.3902 9.04408 6.3902ZM9.04408 10.6477C8.13005 10.6477 7.37637 9.902 7.37637 8.97995C7.37637 8.0579 8.12203 7.31225 9.04408 7.31225C9.96613 7.31225 10.7118 8.0579 10.7118 8.97995C10.7118 9.902 9.96613 10.6477 9.04408 10.6477Z" fill="white"/>
<path d="M11.1047 14.2637H6.89531C5.14743 14.2637 3.72827 12.8445 3.72827 11.0967V6.8873C3.72827 5.13941 5.14743 3.72026 6.89531 3.72026H11.1047C12.8525 3.72026 14.2717 5.13941 14.2717 6.8873V11.0967C14.2717 12.8445 12.8525 14.2637 11.1047 14.2637ZM6.89531 4.70645C5.69264 4.70645 4.72248 5.68463 4.72248 6.87928V11.0886C4.72248 12.2913 5.70065 13.2615 6.89531 13.2615H11.1047C12.3073 13.2615 13.2855 12.2833 13.2855 11.0886V6.87928C13.2855 5.67661 12.3073 4.70645 11.1047 4.70645H6.89531Z" fill="white"/>
<defs>
<linearGradient id="paint0_linear_277_491" x1="15.3621" y1="2.63786" x2="2.63786" y2="15.3621" gradientUnits="userSpaceOnUse">
<stop stop-color="#FBE18A"/>
<stop offset="0.21" stop-color="#FCBB45"/>
<stop offset="0.38" stop-color="#F75274"/>
<stop offset="0.52" stop-color="#D53692"/>
<stop offset="0.74" stop-color="#8F39CE"/>
<stop offset="1" stop-color="#5B4FE9"/>
</linearGradient>
</defs>
</svg>
