<svg width="18" height="18" viewBox="0 0 18 18" fill="none" xmlns="http://www.w3.org/2000/svg">
<g clip-path="url(#clip0_277_481)">
<path d="M17.878 10.4476C18.674 5.5434 15.3438 0.922464 10.4396 0.126407C5.53545 -0.669651 0.91451 2.66062 0.118452 7.56478C-0.677605 12.4689 2.65267 17.0899 7.55683 17.8859C12.461 18.682 17.0819 15.3517 17.878 10.4476Z" fill="url(#paint0_linear_277_481)"/>
<path fill-rule="evenodd" clip-rule="evenodd" d="M11.4334 7.35234C12.171 7.88152 13.069 8.1862 14.0472 8.1862V6.31003C13.8628 6.31003 13.6784 6.29399 13.502 6.2539V7.72918C12.5238 7.72918 11.6258 7.41649 10.8882 6.89533V10.7198C10.8882 12.6361 9.33274 14.1835 7.4245 14.1835C6.71091 14.1835 6.04543 13.967 5.4922 13.5982C6.11759 14.2396 6.99955 14.6405 7.96971 14.6405C9.88597 14.6405 11.4334 13.0931 11.4334 11.1768V7.35234ZM12.1069 5.46014C11.7301 5.05123 11.4815 4.52206 11.4334 3.92874V3.6882H10.9122C11.0405 4.43386 11.4895 5.07528 12.1069 5.46014ZM6.70289 12.1229C6.49443 11.8503 6.38218 11.5136 6.38218 11.1608C6.38218 10.2869 7.09577 9.57328 7.96971 9.57328C8.13006 9.57328 8.29844 9.59733 8.45078 9.64544V7.72918C8.26637 7.70513 8.08196 7.69711 7.90557 7.69711V9.18842C7.75323 9.14032 7.58485 9.11626 7.4245 9.11626C6.55055 9.11626 5.83697 9.82183 5.83697 10.7038C5.83697 11.3212 6.18975 11.8584 6.71091 12.1229H6.70289Z" fill="#EE1D52"/>
<path fill-rule="evenodd" clip-rule="evenodd" d="M10.8882 6.89533C11.6258 7.42451 12.5238 7.72918 13.502 7.72918V6.2539C12.9568 6.14165 12.4757 5.85301 12.1149 5.46014C11.4976 5.07528 11.0486 4.43386 10.9203 3.6882H9.55725V11.1768C9.55725 12.0508 8.84366 12.7564 7.96972 12.7564C7.45658 12.7564 6.99956 12.5078 6.71092 12.131C6.18976 11.8664 5.83698 11.3372 5.83698 10.7118C5.83698 9.83787 6.55056 9.12428 7.42451 9.12428C7.59288 9.12428 7.75324 9.14834 7.90557 9.19644V7.70513C6.02139 7.74522 4.51404 9.27662 4.51404 11.1688C4.51404 12.1149 4.89088 12.9648 5.50023 13.5902C6.05346 13.959 6.71894 14.1755 7.43252 14.1755C9.34878 14.1755 10.8962 12.6281 10.8962 10.7118V6.88731L10.8882 6.89533Z" fill="white"/>
<path fill-rule="evenodd" clip-rule="evenodd" d="M13.494 6.25389V5.853C13.0049 5.853 12.5238 5.71669 12.1069 5.46012C12.4757 5.86101 12.9568 6.14164 13.494 6.25389ZM10.9122 3.68819C10.8962 3.61603 10.8882 3.54387 10.8802 3.4717V3.23117H8.99599V10.7198C8.99599 11.5938 8.2824 12.2993 7.40846 12.2993C7.15189 12.2993 6.91136 12.2352 6.69488 12.1309C6.98352 12.5078 7.44053 12.7563 7.95367 12.7563C8.82762 12.7563 9.53318 12.0508 9.5412 11.1768V3.68819H10.9042H10.9122ZM7.89755 7.71313V7.28819C7.73719 7.26413 7.58485 7.25611 7.4245 7.25611C5.50824 7.25611 3.9608 8.80355 3.9608 10.7198C3.9608 11.9225 4.57015 12.9728 5.50022 13.5982C4.89087 12.9728 4.51403 12.1229 4.51403 11.1768C4.51403 9.28462 6.0294 7.75322 7.90557 7.71313H7.89755Z" fill="#69C9D0"/>
</g>
<defs>
<linearGradient id="paint0_linear_277_481" x1="2.64392" y1="2.63836" x2="15.3682" y2="15.3626" gradientUnits="userSpaceOnUse">
<stop stop-color="#22004A"/>
<stop offset="0.96" stop-color="#010003"/>
<stop offset="1"/>
</linearGradient>
<clipPath id="clip0_277_481">
<rect width="18" height="18" fill="white"/>
</clipPath>
</defs>
</svg>
