<svg width="13" height="15" viewBox="0 0 13 15" fill="none" xmlns="http://www.w3.org/2000/svg">
<path d="M13 6.04385C12.8775 6.05201 12.755 6.06018 12.6325 6.06018C11.2849 6.06018 10.0271 5.38229 9.29202 4.25519V10.397C9.29202 12.9044 7.25834 14.9381 4.75097 14.9381C2.24359 14.9381 0.209915 12.9044 0.209915 10.397C0.209915 7.88967 2.24359 5.856 4.75097 5.856C4.84897 5.856 4.93882 5.86416 5.02866 5.87233V8.11019C4.93882 8.10202 4.84081 8.08568 4.75097 8.08568C3.46869 8.08568 2.43144 9.12294 2.43144 10.4052C2.43144 11.6875 3.46869 12.7247 4.75097 12.7247C6.03324 12.7247 7.16033 11.712 7.16033 10.4379L7.18485 0H9.32469C9.52888 1.91933 11.0725 3.42212 13 3.56097V6.05201" fill="white"/>
</svg>
