<svg width="15" height="15" viewBox="0 0 15 15" fill="none" xmlns="http://www.w3.org/2000/svg">
<path d="M11.2007 2.90756C10.7515 2.90756 10.384 3.27509 10.384 3.73247C10.384 4.18984 10.7515 4.55737 11.2007 4.55737C11.6499 4.55737 12.0256 4.18984 12.0256 3.73247C12.0256 3.27509 11.6581 2.90756 11.2007 2.90756Z" fill="white"/>
<path d="M7.54993 3.96115C5.64694 3.96115 4.1033 5.50478 4.1033 7.40778C4.1033 9.31077 5.64694 10.8544 7.54993 10.8544C9.45293 10.8544 10.9966 9.31077 10.9966 7.40778C10.9966 5.50478 9.45293 3.96115 7.54993 3.96115ZM7.54993 9.61296C6.33299 9.61296 5.34474 8.62471 5.34474 7.40778C5.34474 6.19084 6.33299 5.20259 7.54993 5.20259C8.76687 5.20259 9.75512 6.19084 9.75512 7.40778C9.75512 8.62471 8.76687 9.61296 7.54993 9.61296Z" fill="white"/>
<path d="M10.286 14.4072H4.69952C2.37999 14.4072 0.493332 12.5205 0.493332 10.201V4.61455C0.493332 2.29502 2.37999 0.408356 4.69952 0.408356H10.286C12.6055 0.408356 14.4922 2.29502 14.4922 4.61455V10.201C14.4922 12.5205 12.6055 14.4072 10.286 14.4072ZM4.69952 1.7233C3.10688 1.7233 1.80827 3.02191 1.80827 4.61455V10.201C1.80827 11.7937 3.10688 13.0923 4.69952 13.0923H10.286C11.8786 13.0923 13.1772 11.7937 13.1772 10.201V4.61455C13.1772 3.02191 11.8786 1.7233 10.286 1.7233H4.69952Z" fill="white"/>
</svg>
