<svg width="21" height="21" viewBox="0 0 21 21" fill="none" xmlns="http://www.w3.org/2000/svg">
<path d="M19.2009 11.7625C19.997 6.85839 16.6667 2.23745 11.7625 1.44139C6.85839 0.645337 2.23745 3.97561 1.44139 8.87977C0.645332 13.7839 3.97561 18.4049 8.87977 19.2009C13.7839 19.997 18.4049 16.6667 19.2009 11.7625Z" fill="url(#paint0_linear_277_490)"/>
<path fill-rule="evenodd" clip-rule="evenodd" d="M12.7563 8.66732C13.494 9.19649 14.392 9.50117 15.3701 9.50117V7.625C15.1857 7.625 15.0013 7.60896 14.8249 7.56888V9.04415C13.8467 9.04415 12.9488 8.73146 12.2111 8.2103V12.0348C12.2111 13.9511 10.6557 15.4985 8.74742 15.4985C8.03383 15.4985 7.36835 15.282 6.81512 14.9132C7.44051 15.5546 8.32247 15.9555 9.29263 15.9555C11.2089 15.9555 12.7563 14.4081 12.7563 12.4918V8.66732ZM13.4298 6.77511C13.053 6.3662 12.8044 5.83703 12.7563 5.24371V5.00317H12.2352C12.3635 5.74883 12.8125 6.39026 13.4298 6.77511ZM8.02581 13.4379C7.81735 13.1653 7.7051 12.8286 7.7051 12.4758C7.7051 11.6018 8.41869 10.8883 9.29263 10.8883C9.45299 10.8883 9.62136 10.9123 9.7737 10.9604V9.04415C9.58929 9.0201 9.40488 9.01208 9.22849 9.01208V10.5034C9.07615 10.4553 8.90778 10.4312 8.74742 10.4312C7.87348 10.4312 7.15989 11.1368 7.15989 12.0188C7.15989 12.6361 7.51267 13.1733 8.03383 13.4379H8.02581Z" fill="#EE1D52"/>
<path fill-rule="evenodd" clip-rule="evenodd" d="M12.2111 8.2103C12.9488 8.73948 13.8468 9.04415 14.8249 9.04415V7.56888C14.2797 7.45663 13.7987 7.16798 13.4379 6.77511C12.8205 6.39026 12.3715 5.74883 12.2432 5.00317H10.8802V12.4918C10.8802 13.3658 10.1666 14.0713 9.29265 14.0713C8.77951 14.0713 8.3225 13.8228 8.03386 13.4459C7.5127 13.1813 7.15992 12.6522 7.15992 12.0268C7.15992 11.1528 7.8735 10.4393 8.74744 10.4393C8.91582 10.4393 9.07617 10.4633 9.22851 10.5114V9.0201C7.34432 9.06019 5.83698 10.5916 5.83698 12.4838C5.83698 13.4299 6.21381 14.2798 6.82317 14.9052C7.3764 15.274 8.04188 15.4905 8.75546 15.4905C10.6717 15.4905 12.2192 13.943 12.2192 12.0268V8.20228L12.2111 8.2103Z" fill="white"/>
<path fill-rule="evenodd" clip-rule="evenodd" d="M14.8169 7.56886V7.16797C14.3278 7.16797 13.8468 7.03167 13.4299 6.7751C13.7987 7.17599 14.2797 7.45661 14.8169 7.56886ZM12.2352 5.00316C12.2192 4.931 12.2111 4.85884 12.2031 4.78668V4.54614H10.3189V12.0348C10.3189 12.9087 9.60536 13.6143 8.73141 13.6143C8.47484 13.6143 8.23431 13.5502 8.01783 13.4459C8.30647 13.8228 8.76349 14.0713 9.27663 14.0713C10.1506 14.0713 10.8561 13.3657 10.8642 12.4918V5.00316H12.2272H12.2352ZM9.2205 9.0281V8.60316C9.06014 8.5791 8.90781 8.57109 8.74745 8.57109C6.83119 8.57109 5.28375 10.1185 5.28375 12.0348C5.28375 13.2375 5.89311 14.2878 6.82317 14.9132C6.21382 14.2878 5.83698 13.4379 5.83698 12.4918C5.83698 10.5996 7.35235 9.06819 9.22852 9.0281H9.2205Z" fill="#69C9D0"/>
<defs>
<linearGradient id="paint0_linear_277_490" x1="3.96685" y1="3.95334" x2="16.6911" y2="16.6776" gradientUnits="userSpaceOnUse">
<stop stop-color="#22004A"/>
<stop offset="0.96" stop-color="#010003"/>
<stop offset="1"/>
</linearGradient>
</defs>
</svg>
